<?xml version="1.0" encoding="UTF-8" standalone="no"?>
<!DOCTYPE svg PUBLIC "-//W3C//DTD SVG 1.1//EN" "http://www.w3.org/Graphics/SVG/1.1/DTD/svg11.dtd">
<!-- Created with Vectornator (http://vectornator.io/) -->
<svg height="1024.0pt" stroke-miterlimit="10" style="fill-rule:nonzero;clip-rule:evenodd;stroke-linecap:round;stroke-linejoin:round;" version="1.1" viewBox="0 0 1024 1024" width="1024.0pt" xml:space="preserve" xmlns="http://www.w3.org/2000/svg" xmlns:xlink="http://www.w3.org/1999/xlink">
<defs/>
<g id="Untitled">
<path d="M567.469 184C453.782 189.242 336.638 194.785 223 201C203.555 202.063 184.096 204.181 165 208C165 209 165 209 165 210C302.511 212.806 439.363 200.764 576 194C576.704 192.446 572.274 183.778 567.469 184Z" fill="#010304" fill-rule="nonzero" opacity="1" stroke="none"/>
<path d="M540 208L512 209L482 211L448 215L434 218L412 225L391 234L363 247L327 265L304 277L301 279L323 279L339 271L419 269L524 268L527 267L528 265L382 265L352 266L353 265L362 260L372 257L424 255L545 253L546 250L381 251L392 246L404 244L463 242L535 240L556 239L560 234L488 235L412 237L427 231L444 229L504 226L572 225L587 224L587 222L582 208L540 208Z" fill="#010304" fill-rule="nonzero" opacity="1" stroke="none"/>
<path d="M559 170C450.649 174.967 342.319 180.388 234 186L173 190L154.188 192.969L154 193L146 196L140.156 200.875C140.137 200.897 140.113 200.915 140.094 200.938C140.041 200.988 139.985 201.037 139.938 201.094L139.844 201.25L135 210L127 240L117 290L114 326C113.963 326.666 113.939 327.334 113.906 328C113.459 336.51 113.225 345.038 112.938 353.562C112.381 370.049 111.874 386.541 111 403C310.658 404.953 510.343 407.102 710 405C715.333 387.333 716.438 368.397 722.594 351C723.184 349.333 723.863 347.784 724.594 346.344C724.598 346.335 724.59 346.321 724.594 346.312C724.732 346.039 724.919 345.826 725.062 345.562C725.634 344.51 726.204 343.456 726.844 342.531C726.87 342.494 726.911 342.473 726.938 342.438C727.338 341.862 727.763 341.37 728.188 340.844C728.23 340.793 728.271 340.739 728.312 340.688C728.691 340.228 729.039 339.734 729.438 339.312C729.448 339.301 729.458 339.292 729.469 339.281C730.001 338.711 730.563 338.22 731.125 337.719C731.163 337.685 731.212 337.659 731.25 337.625C731.49 337.416 731.727 337.206 731.969 337C732.719 336.389 733.492 335.869 734.281 335.375C734.655 335.143 735.026 334.893 735.406 334.688C738.441 333.032 741.698 332.187 745 332.125L748 331L754 332L760 336L765 342L765.625 343.156C765.634 343.169 765.647 343.176 765.656 343.188L765.656 343.219C767.754 346 769.594 349.232 771 353L777 371L782 395C793 394.5 793 394.5 804 394C799.078 369.392 790.933 345.451 782 322L791 325L797.656 327.531C797.745 327.563 797.881 327.625 797.969 327.656C798.023 327.679 798.08 327.703 798.125 327.719C806.95 330.844 814.063 333.356 830 339L829 340L821.5 340C813.531 340.937 808.75 341.5 796 343C796.698 346.173 796.86 346.875 797.406 349.344L802 365L807 393C842 391.5 842 391.5 877 390C874.667 375 875.118 359.291 870 345L863 333L853 323L833.438 323C830.226 323.431 827.037 323.677 824 323C777.83 312.709 732.144 300.127 687 286C684.736 285.292 682.809 283.812 681.094 282.062L681 282L677 277C667.647 263.407 659.377 249.007 651.031 234.688L634.562 207.594C631.411 202.694 628.113 197.904 624.719 193.188C620.694 187.633 616.54 182.168 612 177L602 173L583 170L559 170ZM568 176C574.112 175.7 581.601 179.371 584 185C591.15 201.776 595.603 219.581 601 237C605.883 252.759 612.356 279.375 587 280C441.347 283.592 295.694 288.024 150 289C132.799 289.115 132.497 263.29 134 254C136.531 238.357 141.257 223.12 146 208C150.419 193.913 185.4 195.763 199 195C321.97 188.102 444.985 182.033 568 176ZM580.031 295.781C582.133 295.802 584.247 295.906 586.344 296C589.397 296.137 592.437 296.387 595.469 296.75L595.5 296.75C596.333 296.848 597.17 296.879 598 297C599.372 297.2 600.667 297.524 601.875 297.938C602.329 298.093 602.725 298.317 603.156 298.5C604.553 299.09 605.838 299.815 607.031 300.656C607.05 300.669 607.073 300.673 607.094 300.688C607.124 300.709 607.16 300.73 607.188 300.75C607.218 300.772 607.249 300.79 607.281 300.812C607.578 301.028 607.902 301.208 608.188 301.438C608.21 301.456 608.228 301.482 608.25 301.5C609.153 302.23 610.018 303.028 610.812 303.875C610.833 303.897 610.855 303.916 610.875 303.938L611 304L611.188 304.312C611.212 304.34 611.225 304.378 611.25 304.406C612.416 305.712 613.505 307.094 614.469 308.594C614.481 308.613 614.488 308.637 614.5 308.656C615.469 310.171 616.326 311.789 617.062 313.5L617.094 313.562L617.094 313.594C617.731 315.084 618.243 316.655 618.75 318.219C618.771 318.283 618.792 318.342 618.812 318.406C619.441 320.366 619.97 322.31 620.406 324.25C620.408 324.26 620.404 324.272 620.406 324.281C620.448 324.469 620.49 324.657 620.531 324.844C620.58 325.062 620.607 325.28 620.656 325.5C620.665 325.542 620.679 325.584 620.688 325.625C620.694 325.655 620.681 325.689 620.688 325.719C620.688 325.729 620.687 325.739 620.688 325.75C620.704 325.865 620.726 325.98 620.75 326.094C621.021 327.417 621.302 328.739 621.531 330.062C621.546 330.147 621.579 330.228 621.594 330.312L622 332L622.375 335.094C622.555 336.361 622.846 337.834 623 339C623.755 344.714 624.386 350.445 624.906 356.188L625 357L626 371C626.376 377.643 628.009 385.82 626 391.438L626 392L625.719 392.344C625.176 393.546 624.412 394.572 623.406 395.438L623 396L621.938 396.25C621.911 396.265 621.873 396.266 621.844 396.281C620.117 397.266 618.017 397.993 615 398L393 398L158 396C148.976 396.038 139.863 396.612 131 395C129.323 394.695 128.205 392.724 127.312 390.406L127 390L126.875 389.094C126.852 389.019 126.835 388.95 126.812 388.875L126.781 388.688C126.778 388.677 126.784 388.669 126.781 388.656C126.166 386.581 125.724 384.381 125.438 382.594C125.43 382.545 125.445 382.549 125.438 382.5C125.141 380.641 125 379.255 125 379C125 378.407 125.03 377.812 125.031 377.219L125 377L125.188 368.062C125.231 364.948 125.338 361.833 125.406 358.719L125.625 349.375C125.909 342.042 126.303 334.725 126.812 327.406C126.813 327.396 126.812 327.386 126.812 327.375C126.891 326.251 126.916 325.124 127 324C127.334 319.519 129.926 305.299 138 305C207.124 302.44 276.275 300.838 345.438 299.562L367 299L562 296C568.001 295.896 574.016 295.722 580.031 295.781ZM641 312L650 313L662 389L653 389L641 312ZM654 313L663 314L675 389L666 389L658.719 342.969L657.281 333.75L654 313ZM668 314.688L677 315.656L689 389L680 389L668 314.688Z" fill="#010304" fill-rule="nonzero" opacity="1" stroke="none"/>
<path d="M577.75 318.344C575.842 318.174 573.793 318.192 571.656 318.438C541.746 321.87 546.951 373.775 578.656 370.438C608.944 367.249 606.369 320.893 577.75 318.344Z" fill="#010304" fill-rule="nonzero" opacity="1" stroke="none"/>
<path d="M519.906 318.344C517.998 318.174 515.981 318.192 513.844 318.438C483.934 321.87 489.138 373.775 520.844 370.438C551.131 367.249 548.525 320.893 519.906 318.344Z" fill="#010304" fill-rule="nonzero" opacity="1" stroke="none"/>
<path d="M203.438 320.688C202.322 320.688 201.171 320.785 200 321C169.371 326.623 180.87 376.358 211 367C214.046 366.054 216.114 363.041 218 360.469C230.172 343.871 220.177 320.687 203.438 320.688Z" fill="#010304" fill-rule="nonzero" opacity="1" stroke="none"/>
<path d="M158.469 321.5C157.053 321.519 155.572 321.69 154 322C127.621 327.206 132.884 372.765 163 369C164.479 368.815 165.897 368.003 167 367C183.352 352.135 179.706 321.216 158.469 321.5Z" fill="#010304" fill-rule="nonzero" opacity="1" stroke="none"/>
<path d="M203.438 320.688C202.322 320.688 201.171 320.785 200 321C169.371 326.623 180.87 376.358 211 367C214.046 366.054 216.114 363.041 218 360.469C230.172 343.871 220.177 320.687 203.438 320.688Z" fill="#010304" fill-rule="nonzero" opacity="1" stroke="none"/>
<path d="M617.094 313.594C617.731 315.084 618.243 316.655 618.75 318.219L618 315L617.094 313.594Z" fill="#010304" fill-rule="nonzero" opacity="1" stroke="none"/>
<path d="M577.75 318.344C575.842 318.174 573.793 318.192 571.656 318.438C541.746 321.87 546.951 373.775 578.656 370.438C608.944 367.249 606.369 320.893 577.75 318.344Z" fill="#010304" fill-rule="nonzero" opacity="1" stroke="none"/>
<path d="M126.812 327.406L126 332L125.625 349.375C125.909 342.042 126.303 334.725 126.812 327.406Z" fill="#010304" fill-rule="nonzero" opacity="1" stroke="none"/>
<path d="M158.469 321.5C157.053 321.519 155.572 321.69 154 322C127.621 327.206 132.884 372.765 163 369C164.479 368.815 165.897 368.003 167 367C183.352 352.135 179.706 321.216 158.469 321.5Z" fill="#010304" fill-rule="nonzero" opacity="1" stroke="none"/>
<path d="M519.906 318.344C517.998 318.174 515.981 318.192 513.844 318.438C483.934 321.87 489.138 373.775 520.844 370.438C551.131 367.249 548.525 320.893 519.906 318.344Z" fill="#010304" fill-rule="nonzero" opacity="1" stroke="none"/>
<path d="M586.344 296C589.397 296.137 592.437 296.387 595.469 296.75L593 296L586.344 296Z" fill="#010304" fill-rule="nonzero" opacity="1" stroke="none"/>
<path d="M573 169.875C567.999 169.829 562.996 169.817 559 170C450.649 174.967 342.319 180.388 234 186C213.65 187.054 193.246 187.699 173 190C166.745 190.711 160.278 191.334 154.188 192.969L154 193L146 196C143.78 197.168 141.853 198.909 140.156 200.875C140.137 200.897 140.113 200.915 140.094 200.938C140.041 200.988 139.985 201.037 139.938 201.094L139.844 201.25C137.68 203.857 135.963 206.877 135 210C126.942 236.119 120.373 262.876 117 290L114 326C113.963 326.666 113.939 327.334 113.906 328C113.459 336.51 113.225 345.038 112.938 353.562C112.381 370.049 111.874 386.541 111 403C310.658 404.953 510.343 407.102 710 405C715.333 387.333 716.438 368.397 722.594 351C723.184 349.333 723.863 347.784 724.594 346.344C724.598 346.335 724.59 346.321 724.594 346.312C724.732 346.039 724.919 345.826 725.062 345.562C725.634 344.51 726.204 343.456 726.844 342.531C726.87 342.494 726.911 342.473 726.938 342.438C727.338 341.862 727.763 341.37 728.188 340.844C728.23 340.793 728.271 340.739 728.312 340.688C728.691 340.228 729.039 339.734 729.438 339.312C729.448 339.301 729.458 339.292 729.469 339.281C730.001 338.711 730.563 338.22 731.125 337.719C731.163 337.685 731.212 337.659 731.25 337.625C731.49 337.416 731.727 337.206 731.969 337C732.719 336.389 733.492 335.869 734.281 335.375C734.655 335.143 735.026 334.893 735.406 334.688C738.441 333.032 741.698 332.187 745 332.125C752.438 331.986 760.034 335.776 765.625 343.156C765.634 343.169 765.647 343.176 765.656 343.188L765.656 343.219C767.754 346 769.594 349.232 771 353C776.056 366.56 778.333 381 782 395C793 394.5 793 394.5 804 394C799.078 369.392 790.933 345.451 782 322L791 325L797.656 327.531C797.745 327.563 797.881 327.625 797.969 327.656C798.023 327.679 798.08 327.703 798.125 327.719C806.95 330.844 814.063 333.356 830 339C825.75 339.5 824.156 339.688 821.5 340C813.531 340.937 808.75 341.5 796 343C796.698 346.173 796.86 346.875 797.406 349.344C801.144 366.333 802.198 371.173 807 393C842 391.5 842 391.5 877 390C874.667 375 875.118 359.291 870 345C866.875 336.275 861.36 326.999 853 323C850.82 321.957 848.517 321.562 846.125 321.531C842.031 321.478 837.708 322.426 833.438 323C830.226 323.431 827.037 323.677 824 323C777.83 312.709 732.144 300.127 687 286C684.736 285.292 682.809 283.812 681.094 282.062L681 282L677 277C667.647 263.407 659.377 249.007 651.031 234.688L634.562 207.594C631.411 202.694 628.113 197.904 624.719 193.188C620.694 187.633 616.54 182.168 612 177C605.437 169.529 598 170 587 170C583 170 578.001 169.921 573 169.875ZM568 176C574.112 175.7 581.601 179.371 584 185C591.15 201.776 595.603 219.581 601 237C605.883 252.759 612.356 279.375 587 280C441.347 283.592 295.694 288.024 150 289C132.799 289.115 132.497 263.29 134 254C136.531 238.357 141.257 223.12 146 208C150.419 193.913 185.4 195.763 199 195C321.97 188.102 444.985 182.033 568 176ZM580.031 295.781C582.133 295.802 584.247 295.906 586.344 296C589.397 296.137 592.437 296.387 595.469 296.75L595.5 296.75C596.333 296.848 597.17 296.879 598 297C599.372 297.2 600.667 297.524 601.875 297.938C602.329 298.093 602.725 298.317 603.156 298.5C604.553 299.09 605.838 299.815 607.031 300.656C607.05 300.669 607.073 300.673 607.094 300.688C607.124 300.709 607.16 300.73 607.188 300.75C607.218 300.772 607.249 300.79 607.281 300.812C607.578 301.028 607.902 301.208 608.188 301.438C608.21 301.456 608.228 301.482 608.25 301.5C609.153 302.23 610.018 303.028 610.812 303.875C610.833 303.897 610.855 303.916 610.875 303.938L611 304L611.188 304.312C611.212 304.34 611.225 304.378 611.25 304.406C612.416 305.712 613.505 307.094 614.469 308.594C614.481 308.613 614.488 308.637 614.5 308.656C615.469 310.171 616.326 311.789 617.062 313.5L617.094 313.562L617.094 313.594C617.731 315.084 618.243 316.655 618.75 318.219C618.771 318.283 618.792 318.342 618.812 318.406C619.441 320.366 619.97 322.31 620.406 324.25C620.408 324.26 620.404 324.272 620.406 324.281C620.448 324.469 620.49 324.657 620.531 324.844C620.58 325.062 620.607 325.28 620.656 325.5C620.665 325.542 620.679 325.584 620.688 325.625C620.694 325.655 620.681 325.689 620.688 325.719C620.688 325.729 620.687 325.739 620.688 325.75C620.704 325.865 620.726 325.98 620.75 326.094C621.021 327.417 621.302 328.739 621.531 330.062C621.546 330.147 621.579 330.228 621.594 330.312L622 332L622.375 335.094C622.555 336.361 622.846 337.834 623 339C623.755 344.714 624.386 350.445 624.906 356.188L625 357L626 371C626.376 377.643 628.009 385.82 626 391.438L626 392L625.719 392.344C625.176 393.546 624.412 394.572 623.406 395.438L623 396L621.938 396.25C621.911 396.265 621.873 396.266 621.844 396.281C620.117 397.266 618.017 397.993 615 398L393 398L158 396C148.976 396.038 139.863 396.612 131 395C129.323 394.695 128.205 392.724 127.312 390.406L127 390L126.875 389.094C126.852 389.019 126.835 388.95 126.812 388.875L126.781 388.688C126.778 388.677 126.784 388.669 126.781 388.656C126.166 386.581 125.724 384.381 125.438 382.594C125.43 382.545 125.445 382.549 125.438 382.5C125.141 380.641 125 379.255 125 379C125 378.407 125.03 377.812 125.031 377.219L125 377L125.188 368.062C125.231 364.948 125.338 361.833 125.406 358.719L125.625 349.375C125.909 342.042 126.303 334.725 126.812 327.406C126.813 327.396 126.812 327.386 126.812 327.375C126.891 326.251 126.916 325.124 127 324C127.334 319.519 129.926 305.299 138 305C207.124 302.44 276.275 300.838 345.438 299.562L367 299L562 296C568.001 295.896 574.017 295.722 580.031 295.781ZM641 312L650 313L662 389L653 389L641 312ZM654 313L663 314L675 389L666 389L658.719 342.969L657.281 333.75L654 313ZM668 314.688L677 315.656L689 389L680 389L668 314.688Z" fill="#d2cfd1" fill-rule="nonzero" opacity="1" stroke="none"/>
<path d="M111 412C111.667 430.333 111.549 448.712 113 467C113.656 475.268 116.431 476.534 124 477C142.976 478.168 162 478.333 181 479C182.601 471.797 180.626 458.27 188 458C214.316 457.037 240.671 457.508 267 458C276.355 458.175 286.49 456.11 295 460C299.745 462.169 298.66 469.992 302 474C305.5 478.2 309.58 483.282 315 484C338.133 487.066 361.695 486.195 385 485C395.37 484.468 398.673 465.697 402 462C404.056 459.716 407.927 460.025 411 460C448.334 459.692 485.694 459.543 523 461C528.493 461.215 535.449 460.803 539 465C545.556 472.748 542.274 491.504 549 492C579.259 494.23 609.758 491.554 640 494C655.247 495.233 669.904 500.53 685 503C690.812 503.951 699.525 504.654 701 496C705.565 469.22 707 442 710 415C510.334 416.062 310.66 413.943 111 412ZM346.469 442C355.982 442.118 365.51 442.575 375 443C394.209 443.86 398.668 473.228 378 475C357.738 476.737 337.245 475.928 317 474C314.473 473.759 312.053 472.493 310 471C298.411 462.572 306.086 444.13 318 443C327.458 442.103 336.956 441.882 346.469 442Z" fill="#d2cfd1" fill-rule="nonzero" opacity="1" stroke="none"/>
<path d="M618 562L645 562L656 635L691 562L718 562L697 693L677 693L689 608L659 672L642 672L632 611L618 693L598 693L618 562Z" fill="#d2cfd1" fill-rule="nonzero" opacity="1" stroke="none"/>
<path d="M875 562L900 562L912 634L931 596L947 562L972 562L952 693L932 693L944 609L915 672L898 672L892 629L889 609L875 693L855 693L875 562Z" fill="#d2cfd1" fill-rule="nonzero" opacity="1" stroke="none"/>
<path d="M469.5 561.781C460.999 561.853 452.5 562 444 562C434 627.5 434 627.5 424 693C434.5 693 434.5 693 445 693C450 669 450 669 455 645C460.5 645 460.5 645 466 645C471.5 668.5 471.5 668.5 477 692C489 692 489 692 501 692C495.5 666 495.5 666 490 640C499.371 638.438 505.552 632.794 508 623C511.124 610.505 513.369 597.776 515 585C515.693 579.57 513.726 573.065 510 569C506.354 565.022 500.423 562.184 495 562C486.505 561.712 478.001 561.709 469.5 561.781ZM465.219 577.062C479.399 577.063 492.242 577.506 490 595.719C489.054 603.403 487.886 611.093 486.031 618.594C485.548 620.55 484.513 622.451 483.062 623.781C476.824 629.504 466.571 625.844 458.281 625.844C461.752 604.013 461.748 598.893 465.219 577.062Z" fill="#d2cfd1" fill-rule="nonzero" opacity="1" stroke="none"/>
<path d="M378.5 561.688C369.664 561.796 360.833 562 352 562C342 627.5 342 627.5 332 693C342 693 342 693 352 693C356.5 670.5 356.5 670.5 361 648C379.424 647.386 408.509 651.462 414 627C416.965 613.793 419.123 600.405 421 587C422.193 578.48 420.445 570.318 413 565C410.682 563.345 407.845 562.14 405 562C396.177 561.566 387.336 561.579 378.5 561.688ZM372.875 578.375C380.471 578.375 398.585 577.234 396.875 591.344C395.774 600.43 393.081 621.725 391.469 623.875C386.864 630.014 372.549 627.344 364.875 627.344C368.875 605.344 368.875 600.375 372.875 578.375Z" fill="#d2cfd1" fill-rule="nonzero" opacity="1" stroke="none"/>
<path d="M254 564.844L207 694.844L230 694.844L239 669.844L270 669.844L271 694.844L294 694.844L287 564.844L254 564.844ZM267.156 596.594C267.479 596.594 267.744 596.865 267.75 597.188L268.719 653C268.725 653.331 268.456 653.594 268.125 653.594L247.562 653.594C247.155 653.594 246.865 653.197 247 652.812L266.594 597C266.677 596.763 266.905 596.594 267.156 596.594Z" fill="#d2cfd1" fill-rule="nonzero" opacity="1" stroke="none"/>
<path d="M782 562C794 562 794 562 806 562C800.333 595.333 794 628.56 789 662C787.017 675.259 815.72 676.216 818.227 662C820.878 646.969 828.667 582.667 832 563C843 562.5 843 562.5 854 562C849 598 844.778 634.117 839 670C838.429 673.544 836.82 676.906 835 680C823.869 698.923 795.972 693.414 779 692C766.61 690.967 762.455 675.784 764 666C769.487 631.248 776 596.667 782 562Z" fill="#d2cfd1" fill-rule="nonzero" opacity="1" stroke="none"/>
<path d="M138.737 563.839L159.737 563.839L165.737 660.839L201.737 563.839L226.237 563.839L176.737 693.839L144.737 694.839L138.737 563.839Z" fill="#d2cfd1" fill-rule="nonzero" opacity="1" stroke="none"/>
<path d="M540 208L582 208L587 222L587 224L572 225L504 226L444 229L427 231L412 237L488 235L560 234L556 239L535 240L463 242L404 244L392 246L381 251L546 250L545 253L424 255L372 257L362 260L353 265L352 266L382 265L528 265L527 267L524 268L419 269L339 271L323 279L301 279L304 277L327 265L363 247L391 234L412 225L434 218L448 215L482 211L512 209L540 208Z" fill="#d2cfd1" fill-rule="nonzero" opacity="1" stroke="none"/>
<path d="M540 562L598 562L593 583L560 583L555 616L585 617L581 638L551 638L549.222 647.78L545 671L582 671L576.704 692L518 692L529.497 624.063L540 562Z" fill="#d2cfd1" fill-rule="nonzero" opacity="1" stroke="none"/>
<path d="M67 563.839L125 563.839L120 584.839L87 584.839L82 617.839L112 618.839L108 639.839L78 639.839L76.2218 649.619L72 672.839L109 672.839L103.704 693.839L45 693.839L56.497 625.902L67 563.839Z" fill="#d2cfd1" fill-rule="nonzero" opacity="1" stroke="none"/>
<path d="M890 399C886.145 426.139 886.137 426.143 882.281 453.281C847.637 459.143 847.645 459.982 813 465.844C808.133 445.623 806.673 423.787 806 403C794.5 404 794.5 404 783 405C783.5 451 783.5 451 784 497C805.858 492.326 827.778 487.977 849.562 482.969C860.601 480.431 889.555 477.084 891.281 465.844C894.584 444.334 896.43 422.61 899 401C894.5 400 894.5 400 890 399ZM792.562 420.5C807.924 433.667 807.033 430.352 794.562 447.5C792.562 450.29 792.618 447.243 792.562 446.5C791.922 437.857 792.563 429.167 792.562 420.5Z" fill="#d2cfd1" fill-rule="nonzero" opacity="1" stroke="none"/>
<path d="M741 384L737 388L732 397L728 414L726 435L726 450L727 463L729 478L733 494L739 506L744 512L751 513L752 512L758 504L763 490L766 470L766 441.656C766 472.604 757.622 503.531 747.031 503.531C736.44 503.531 731.5 474.73 731.5 443.781C731.5 413.151 736.688 384.646 747.062 384.062L747 384L741 384Z" fill="#010304" fill-rule="nonzero" opacity="1" stroke="none"/>
<path d="M576 194C439.363 200.764 302.511 212.806 165 210C165 209 165 209 165 208C184.095 204.181 203.555 202.063 223 201C336.638 194.785 453.794 189.242 567.481 184C572.286 183.778 576.704 192.446 576 194Z" fill="#ba162b" fill-rule="nonzero" opacity="1" stroke="none"/>
<path d="M877 397C876.333 405.333 877 412 877 422C877 431.298 876.963 446.528 868 449C849.911 453.99 834.395 457 816.062 461C814.136 441.357 810 421.737 810 402C832.983 400.116 853.94 397 877 397Z" fill="#d2cfd1" fill-rule="nonzero" opacity="1" stroke="none"/>
<path d="M521 733L535 734L546 771L567 734L586 734L576.704 804L560 804L565 763L548 794L537 794L528 763L523 805L509 805L518 734" fill="#95192c" fill-rule="nonzero" opacity="1" stroke="none"/>
<path d="M739 562L763 562L741 693L719 693L739 562Z" fill="#d2cfd1" fill-rule="nonzero" opacity="1" stroke="none"/>
<path d="M398 733L396 734L384 804L399 804L404 780L409 780L420 804L437 805L437 801L434 794L426 778L429 778L432 776L437 771L441 752L441 742L439 738L434 734L398 733ZM409 746L424 746L426 748L425 757L423 764L419 767L406 767L409 746Z" fill="#95192c" fill-rule="nonzero" opacity="1" stroke="none"/>
<path d="M635 734L634 735L620 767L604 800L603 805L618 805L624 791L646 791L648 804L660 805L663 804L662 791L658 757L655 734L635 734ZM642 751L643 751L644 779L630 779L642 751Z" fill="#95192c" fill-rule="nonzero" opacity="1" stroke="none"/>
<path d="M330 733L328 736L297 805L311 805L318 792L339 792L340 803L341 804L356 804L348 734L346 733L330 733ZM335 752L336 752L338 779L323 779L334 753L335 752Z" fill="#95192c" fill-rule="nonzero" opacity="1" stroke="none"/>
<path d="M644 209C703.991 209 738.844 214.389 784 254C794.101 262.861 803.779 272.226 813 282C820.468 289.916 825.293 300.47 834 307C836.945 309.209 841.333 306.333 845 306C839.968 308.935 834.484 316.621 829 311C816.645 298.337 805.285 284.731 793 272C768.592 246.704 743.767 225.353 708 222C705.753 221.789 697.925 222 691 225C680.186 229.685 680.667 245.667 675 256C661.829 242.829 650.52 225.952 644 209Z" fill="#d2cfd1" fill-rule="nonzero" opacity="1" stroke="none"/>
<path d="M780 733L801 734L807 738L810 742L810 751L808 753L798 753L796 752L794 748L792 747L780 747L777 749L776 752L776 759L779 761L797 764L805 769L806 771L806 783L803 798L795 805L772 805L761 804L756 799L755 797L757 785L770 785L771 791L774 792L784 792L789 789L790 779L787 777L770 774L764 771L761.382 766L761 754L763 739L770 734L772.696 733.73L780 733Z" fill="#95192c" fill-rule="nonzero" opacity="1" stroke="none"/>
<path d="M250 734L272 735L277 739L279 742L279 749L277 754L264 754L262 748L249 748L246 750L241 774L239 786L239 791L240 792L256 792L258 787L271 786L270 797L266 803L261 806L231 806L225 802L222 798L222 789L230 745L234 739L242 735L250 734Z" fill="#95192c" fill-rule="nonzero" opacity="1" stroke="none"/>
<path d="M513.831 318.453C548.026 314.529 553.138 367.052 520.831 370.453C489.126 373.79 483.921 321.885 513.831 318.453Z" fill="#bb162b" fill-rule="nonzero" opacity="1" stroke="none"/>
<path d="M571.668 318.453C605.863 314.529 610.974 367.052 578.668 370.453C546.962 373.79 541.758 321.885 571.668 318.453Z" fill="#bb162b" fill-rule="nonzero" opacity="1" stroke="none"/>
<path d="M853 318C869.443 318 872.767 317.353 891 321C937.677 330.335 937.024 361.341 940 403C937.5 403 937.5 403 935 403C933.779 391.608 932.367 371.506 929 359C926.801 350.831 918.176 335.647 911 350C908.924 354.153 907.203 358.516 906 363C903.527 372.219 902 381.667 900 391C898.576 391 891.146 393.385 891 389C890.689 379.672 891.389 370.325 891 361C890.564 350.542 891.193 339.088 886 330C880.116 319.702 858.749 329.497 853 318Z" fill="#d2cfd1" fill-rule="nonzero" opacity="1" stroke="none"/>
<path d="M692 733L741 733L738 746L721 746L711 803L710 804L695 804L704 746L689 746L692 733Z" fill="#95192c" fill-rule="nonzero" opacity="1" stroke="none"/>
<path d="M154 322C179.146 317.037 184.442 351.144 167 367C165.897 368.003 164.479 368.815 163 369C132.884 372.765 127.621 327.206 154 322Z" fill="#bb162b" fill-rule="nonzero" opacity="1" stroke="none"/>
<path d="M200 321C218.741 317.559 230.983 342.774 218 360.478C216.114 363.05 214.046 366.054 211 367C180.87 376.358 169.371 326.623 200 321Z" fill="#bb162b" fill-rule="nonzero" opacity="1" stroke="none"/>
<path d="M914 376L913 377L909 393L907 413L907 441L909 458L913 471L917 473L919 470L923 457L925 440L925 419.094C925 439.711 921.705 460.312 917.531 460.312C913.358 460.312 911.406 441.117 911.406 420.5C911.406 399.883 913.483 380.688 917.656 380.688C918.606 380.688 919.493 381.707 920.312 383.375L918 377L914 376Z" fill="#010304" fill-rule="nonzero" opacity="1" stroke="none"/>
<path d="M178.117 215.815C176.117 247.315 176.117 247.315 174.117 278.815C166.727 278.815 156.509 281.072 157.117 269.815C157.662 259.741 159.229 249.725 161.117 239.815C161.906 235.673 163.304 231.622 165.117 227.815C167.58 222.642 171.541 215.815 178.117 215.815Z" fill="#d2cfd1" fill-rule="nonzero" opacity="1" stroke="none"/>
<path d="M869 283C874.899 281.906 881.05 282.224 887 283C894.151 283.933 897.045 293.273 895 299C892.334 306.464 879.589 307.671 873 308C868.339 308.233 863.596 308.811 859 308C854.817 307.262 854.813 298.494 855 297C856.131 287.948 861.206 284.445 869 283Z" fill="#d2cfd1" fill-rule="nonzero" opacity="1" stroke="none"/>
<path d="M707 230C717.656 232.664 725.968 248.645 731 256C741.773 271.745 746.229 279.716 756 296C745.761 298.56 738.2 279.446 734.686 274C725.164 259.24 716.667 244.667 707 230Z" fill="#d2cfd1" fill-rule="nonzero" opacity="1" stroke="none"/>
<path d="M934 409C937 410 937 410 940 411C940 430.014 947.017 459 932 459C932.888 441.677 934 426.346 934 409Z" fill="#d2cfd1" fill-rule="nonzero" opacity="1" stroke="none"/>
<path d="M854 309C848.424 312.717 842.367 315.865 836 317.956C836 310.15 847.404 309.238 854 309Z" fill="#d2cfd1" fill-rule="nonzero" opacity="1" stroke="none"/>
<path d="M745.812 361C730.447 361 718 398.059 718 443.781C718 489.503 730.447 526.562 745.812 526.562C748.736 526.562 751.57 525.206 754.219 522.719C765.484 512.131 773.656 480.804 773.656 443.781C773.656 398.059 761.178 361 745.812 361ZM747.375 384C757.543 384 765.268 408.678 765.875 438.031C765.9 439.253 766 440.42 766 441.656C766 472.604 757.622 503.531 747.031 503.531C736.44 503.531 731.5 474.73 731.5 443.781C731.5 413.151 736.688 384.646 747.062 384.062C747.17 384.056 747.266 384 747.375 384Z" fill="#d2cfd1" fill-rule="nonzero" opacity="1" stroke="none"/>
<path d="M916 365.531C909.647 365.531 904.5 390.147 904.5 420.5C904.5 450.853 909.647 475.469 916 475.469C917.209 475.469 918.374 474.558 919.469 472.906C924.127 465.877 927.5 445.078 927.5 420.5C927.5 390.147 922.353 365.531 916 365.531ZM917.656 380.688C918.606 380.688 919.493 381.707 920.312 383.375L922 388L924 400L925 412L925 419.094C925 439.711 921.705 460.312 917.531 460.312C913.358 460.312 911.406 441.117 911.406 420.5C911.406 399.883 913.483 380.688 917.656 380.688Z" fill="#d2cfd1" fill-rule="nonzero" opacity="1" stroke="none"/>
</g>
</svg>
